<?xml version="1.0" encoding="UTF-8"?>
<svg width="256px" height="256px" viewBox="0 0 256 256" version="1.1" xmlns="http://www.w3.org/2000/svg" xmlns:xlink="http://www.w3.org/1999/xlink">
    <title>icon</title>
    <g id="Page-1" stroke="none" stroke-width="1" fill="none" fill-rule="evenodd">
        <g id="icon" fill-rule="nonzero">
            <g>
                <rect id="Rectangle" fill="#375767" x="0" y="0" width="256" height="256"></rect>
                <g id="Rectangle-2" transform="translate(22.000000, 22.000000)">
                    <g id="path-1-link" fill="#000000">
                        <path d="M6,0 L206,0 C209.313708,0 212,2.6862915 212,6 L212,207 C212,209.761424 209.761424,212 207,212 L5,212 C2.2385763,212 0,209.761424 0,207 L0,6 C0,2.6862915 2.6862915,0 6,0 Z" id="path-1"></path>
                    </g>
                    <g id="path-1-link" fill="#FFFFFF">
                        <path d="M6,0 L206,0 C209.313708,0 212,2.6862915 212,6 L212,207 C212,209.761424 209.761424,212 207,212 L5,212 C2.2385763,212 0,209.761424 0,207 L0,6 C0,2.6862915 2.6862915,0 6,0 Z" id="path-1"></path>
                    </g>
                </g>
                <g id="billingo_logo_2015-horiz" transform="translate(39.000000, 172.000000)" fill="#FF6867">
                    <path d="M68.4284852,9.39137134 L58.4023335,9.39137134 C56.647757,9.39137134 54.9647958,10.7026194 54.5351036,12.403698 L51.5272581,24.2758089 C50.9543351,26.5084746 51.3840274,28.7411402 52.673104,30.3713405 C53.926373,31.9661017 55.8599879,32.8520801 58.1158721,32.8520801 L63.4870247,32.8520801 C67.2826393,32.8520801 71.0066385,29.9106317 71.973446,26.1895223 C72.4747536,24.2049307 72.1166767,22.2557781 70.9708308,20.8382126 C70.8992154,20.7318952 70.7917924,20.6610169 70.720177,20.5546995 C72.1524844,19.4560863 73.2267149,17.9322034 73.6922148,16.2311248 C74.1577147,14.459168 73.7996379,12.6872111 72.7970227,11.375963 C71.7944076,10.1355932 70.2188694,9.39137134 68.4284852,9.39137134 Z M68.1778314,23.0354391 C68.6433313,23.6024653 68.7507544,24.4175655 68.5359083,25.3389831 C67.998793,27.5007704 65.7071012,29.3436055 63.5586401,29.3436055 L58.1874874,29.3436055 C57.0774492,29.3436055 56.1464494,28.953775 55.5735265,28.2095532 C54.9647958,27.4298921 54.7857574,26.3312789 55.1080266,25.1617874 L58.1158721,13.2896764 C58.1516797,13.1479199 58.3665258,12.9707242 58.5097566,12.9707242 L68.5359083,12.9707242 C69.2162543,12.9707242 69.7175619,13.183359 70.0756387,13.6086287 C70.4337156,14.0338983 70.5053309,14.7072419 70.3262925,15.4160247 C69.8966003,17.1171032 68.0704084,18.6409861 66.3516395,18.7118644 C66.3516395,18.7118644 66.3158318,18.7118644 66.3158318,18.7118644 L66.3158318,18.7118644 C66.2800241,18.7118644 66.2442165,18.7118644 66.2084088,18.7118644 L61.5176021,18.7118644 L60.62241,22.2557781 L60.62241,22.2557781 L66.2084088,22.2557781 C66.2442165,22.2557781 66.3158318,22.2557781 66.3516395,22.2557781 C67.0677932,22.220339 67.7481392,22.5038521 68.1778314,23.0354391 Z" id="Shape"></path>
                    <path d="M178,23.4961479 L176.138,20.4838213 C175.207001,21.0508475 174.204385,21.2280431 173.416616,21.0154083 C172.951116,20.8736518 172.628847,20.5901387 172.414001,20.2003082 L172.414001,20.2003082 C172.234963,19.8104777 171.984309,19.4206471 171.733655,19.0662558 C170.480386,17.4714946 168.546771,16.5855162 166.290887,16.5855162 C161.886542,16.5855162 157.58962,19.9876733 156.479582,24.3112481 C155.906659,26.5793529 156.336351,28.7765794 157.625427,30.4067797 C158.878696,32.0015408 160.812311,32.8875193 163.068196,32.8875193 C167.472541,32.8875193 171.769463,29.4853621 172.879501,25.1617874 C172.951116,24.9491525 172.986924,24.7365177 173.022732,24.5238829 C173.416616,24.5947612 173.774693,24.6302003 174.168578,24.6302003 C175.386039,24.6302003 176.746731,24.2403698 178,23.4961479 Z M169.33454,24.3112481 C168.654194,27.0400616 165.753772,29.3436055 162.99658,29.3436055 C161.886542,29.3436055 160.955542,28.953775 160.382619,28.2095532 C159.773889,27.4298921 159.59485,26.3312789 159.917119,25.1617874 C160.597465,22.4329738 163.497888,20.1294299 166.255079,20.1294299 C167.365118,20.1294299 168.296117,20.5192604 168.86904,21.2634823 C169.477771,22.0077042 169.621002,23.1063174 169.33454,24.3112481 Z" id="Shape"></path>
                    <path d="M132.130356,16.550077 L128.119895,16.550077 C126.365319,16.550077 124.682358,17.8613251 124.252665,19.5624037 L123.071012,24.2758089 C122.390666,27.0046225 119.812513,29.3081664 117.449205,29.3081664 C116.625629,29.3081664 115.945283,29.0246533 115.479783,28.422188 C114.871052,27.642527 114.692014,26.4375963 115.050091,25.0909091 L116.661436,18.8890601 L112.937437,18.8890601 L111.576745,24.2403698 C111.576745,24.2403698 111.576745,24.2403698 111.576745,24.2403698 L111.576745,24.2403698 C110.896399,26.9691834 107.995977,29.2727273 105.238785,29.2727273 C104.128747,29.2727273 103.197747,28.8828968 102.624824,28.1386749 C102.016093,27.3590139 101.837055,26.2604006 102.159324,25.0909091 L102.159324,25.0909091 L104.665862,15.0970724 C104.916516,14.0338983 105.489439,13.183359 106.133977,12.8289676 C106.420439,12.6872111 106.563669,12.6872111 106.599477,12.6872111 C106.671092,12.7580894 106.850131,13.2187982 106.563669,14.2465331 C106.133977,15.9121726 105.417823,17.3297381 104.522631,18.5346687 L102.875478,25.05547 C105.596862,23.1417565 108.819553,19.9522342 110.037015,15.0970724 C110.753168,12.2619414 109.750553,10.7734977 109.070207,10.1355932 C108.139207,9.24961479 106.742708,8.93066256 105.417823,9.32049307 C103.412593,9.88751926 101.837055,11.7303544 101.192517,14.2465331 L98.6859787,24.2403698 C98.0056327,26.9691834 95.1052102,29.2727273 92.3480185,29.2727273 C91.2379803,29.2727273 90.3069805,28.8828968 89.7340575,28.1386749 C89.1253269,27.3590139 88.9462885,26.2604006 89.2685576,25.0909091 L89.2685576,25.0909091 L91.7750956,15.0970724 C92.0257493,14.0338983 92.5986723,13.183359 93.2432106,12.8289676 C93.5296721,12.6872111 93.6729028,12.6872111 93.7087105,12.6872111 C93.7803259,12.7580894 93.9593643,13.2187982 93.6729028,14.2465331 C93.2432106,15.9121726 92.5270569,17.3297381 91.6318648,18.5346687 L89.9847113,25.05547 C92.7060954,23.1417565 95.928787,19.9522342 97.1462482,15.0970724 C97.8624019,12.2619414 96.8597868,10.7734977 96.1794408,10.1355932 C95.248441,9.24961479 93.8519413,8.93066256 92.5270569,9.32049307 C90.5218266,9.88751926 88.9462885,11.7303544 88.3017502,14.2465331 L85.7952122,24.2403698 C85.1148662,26.9691834 82.5367129,29.2727273 80.1734058,29.2727273 C79.349829,29.2727273 78.669483,28.9892142 78.2039831,28.3867488 C77.5952525,27.6070878 77.416214,26.4021572 77.7742909,25.05547 L79.3856367,18.8181818 L75.6616375,18.8181818 L74.3009455,24.1694915 C73.6922148,26.5439137 74.0860994,28.8828968 75.4109837,30.5130971 C76.5568296,31.9661017 78.2397908,32.7457627 80.1734058,32.7457627 C82.5009053,32.7457627 84.8284047,31.5762712 86.5829813,29.7688752 C86.6904043,29.9460709 86.7978274,30.0878274 86.9052505,30.2650231 C88.1585194,31.8597843 90.0921344,32.7457627 92.3480185,32.7457627 C94.9619795,32.7457627 97.5043251,31.540832 99.4021324,29.6979969 C99.5095554,29.9106317 99.6527862,30.0878274 99.7960169,30.2650231 C101.049286,31.8597843 102.982901,32.7457627 105.238785,32.7457627 C107.781131,32.7457627 110.323476,31.6117103 112.185476,29.8043143 C112.328706,30.0523883 112.471937,30.3004622 112.650976,30.5130971 C113.796822,31.9661017 115.479783,32.7457627 117.413398,32.7457627 C121.423858,32.7457627 125.434319,29.3436055 126.50855,25.0200308 L127.690203,20.3066256 C127.726011,20.164869 127.940857,19.9876733 128.084088,19.9876733 L132.130356,19.9876733 C132.84651,19.9876733 133.419433,20.2357473 133.77751,20.6610169 C134.171394,21.1571649 134.278817,21.8305085 134.063971,22.6456086 L131.485818,32.7457627 L135.209817,32.7457627 L137.537316,23.4961479 C138.002816,21.6533128 137.644739,19.8459168 136.606317,18.4992296 C135.567894,17.2942989 133.956548,16.550077 132.130356,16.550077 Z" id="Path"></path>
                    <path d="M148.494468,16.550077 C144.090123,16.550077 139.793201,19.9522342 138.683162,24.2758089 C138.110239,26.5084746 138.539932,28.7411402 139.829008,30.3713405 C141.082277,31.9661017 143.015892,32.8520801 145.271776,32.8520801 C146.811507,32.8520801 148.351237,32.4268105 149.747737,31.6825886 L149.497083,32.7103236 L149.497083,32.7103236 L148.279622,37.6009245 L147.670891,40.046225 C147.420237,41.1093991 146.847314,41.9599384 146.202776,42.3143297 C145.916315,42.4560863 145.773084,42.4560863 145.737276,42.4560863 C145.665661,42.385208 145.486622,41.9244992 145.737276,40.8967643 C146.023738,39.7627119 146.632468,38.9476117 147.420237,38.238829 L148.673506,33.1710324 C148.601891,33.2064715 148.566083,33.2419106 148.530276,33.2773498 C146.166968,34.624037 143.230738,36.3251156 142.299738,40.046225 C141.440354,43.412943 142.980084,45.3975347 144.877892,45.8936826 C145.164353,45.9645609 145.486622,46 145.773084,46 C147.921545,46 150.284852,44.2634823 151.144237,40.8967643 L155.083082,25.1617874 C155.656005,22.9291217 155.226313,20.6964561 153.937236,19.0662558 C152.683967,17.4360555 150.750352,16.550077 148.494468,16.550077 Z M145.271776,29.3436055 C144.161738,29.3436055 143.230738,28.953775 142.657815,28.2095532 C142.049085,27.4298921 141.870046,26.3312789 142.192315,25.1617874 C142.872661,22.4329738 145.773084,20.1294299 148.530276,20.1294299 C149.640314,20.1294299 150.571314,20.5192604 151.144237,21.2634823 C151.752967,22.0431433 151.932006,23.1417565 151.609736,24.3112481 C150.893583,27.0400616 147.99316,29.3436055 145.271776,29.3436055 Z" id="Shape"></path>
                    <path d="M115.157514,17.4006163 C116.554013,17.4006163 117.986321,16.2665639 118.344398,14.8844376 C118.702474,13.5023112 117.84309,12.3682589 116.44659,12.3682589 C115.050091,12.3682589 113.617783,13.5023112 113.259706,14.8844376 C112.901629,16.2665639 113.761014,17.4006163 115.157514,17.4006163 Z" id="Path"></path>
                    <path d="M77.8459063,17.4006163 C79.242406,17.4006163 80.6747133,16.2665639 81.0327902,14.8844376 C81.390867,13.5023112 80.5314826,12.3682589 79.1349829,12.3682589 C77.7384832,12.3682589 76.3061758,13.5023112 75.948099,14.8844376 C75.5900221,16.2665639 76.4494066,17.4006163 77.8459063,17.4006163 Z" id="Path"></path>
                    <path d="M21.34138,-1.24250372e-12 C33.1278987,-1.24250372e-12 42.68276,9.45651872 42.68276,21.1217257 C42.68276,32.7869327 33.1278987,42.2434515 21.34138,42.2434515 C9.55486129,42.2434515 5.54010903e-13,32.7869327 5.54010903e-13,21.1217257 C5.54010903e-13,9.45651872 9.55486129,-1.24250372e-12 21.34138,-1.24250372e-12 Z M27.357071,9.39137134 L17.3309193,9.39137134 C15.5405351,9.39137134 13.8933816,10.6671803 13.4636894,12.403698 L13.4636894,12.403698 L10.4558439,24.2758089 C9.91872863,26.5084746 10.3126132,28.7411402 11.6016898,30.3713405 C12.8549588,31.9661017 14.7885737,32.8520801 17.0444579,32.8520801 L17.0444579,32.8520801 L22.4156105,32.8520801 C26.2470328,32.8520801 29.971032,29.9460709 30.9020318,26.1895223 C31.4033394,24.2049307 31.0452625,22.2557781 29.8994166,20.8382126 C29.8278012,20.7318952 29.7203782,20.6610169 29.6487628,20.5546995 C31.0810702,19.4915254 32.1911084,17.9676425 32.6208006,16.2311248 C33.0504929,14.459168 32.7282237,12.6872111 31.6898008,11.375963 C30.7229934,10.1001541 29.1116476,9.39137134 27.357071,9.39137134 L27.357071,9.39137134 Z M27.357071,12.9352851 C28.0016093,12.9352851 28.5387246,13.1479199 28.8609938,13.5731895 C29.2190706,13.9984592 29.290686,14.6718028 29.1116476,15.3805855 C28.6819553,17.0816641 26.8557634,18.605547 25.1369946,18.6764253 L25.1369946,18.6764253 L20.3029572,18.6764253 L19.407765,22.220339 L25.1011869,22.220339 C25.9247636,22.220339 26.6051096,22.5038521 27.0348019,23.0354391 C27.5003018,23.6024653 27.6077248,24.4175655 27.3928787,25.3389831 C26.8557634,27.5007704 24.5640716,29.3436055 22.4156105,29.3436055 L22.4156105,29.3436055 L17.0444579,29.3436055 C15.9344196,29.3436055 15.0034198,28.9183359 14.4304969,28.2095532 C13.8217662,27.4653313 13.6785355,26.366718 13.964997,25.1617874 L13.964997,25.1617874 L16.9370348,13.2542373 C16.9728425,13.1124807 17.2234963,12.9352851 17.3309193,12.9352851 L17.3309193,12.9352851 Z" id="Combined-Shape"></path>
                </g>
            </g>
            <g id="Gravity-Forms-Color---Alternate-Logo" transform="translate(91.246970, 50.301916)">
                <path d="M65.4220864,19.4860797 L44.1429566,7.12320273 C42.2963801,6.06350991 39.8343364,5.44541459 37.3722928,5.44541459 C34.9101611,5.44541459 32.4481174,6.06350991 30.6016286,7.12320273 L9.23444964,19.4860797 C5.45351045,21.7819632 2.46387343,26.8154158 2.46387343,31.2307732 L2.46387343,56.044776 C2.46387343,60.4600453 5.36554895,65.581835 9.23444964,67.7894695 L30.6016286,80.1523465 C32.4481174,81.2119511 34.9101611,81.8301346 37.3722928,81.8301346 C39.8343364,81.8301346 42.2963801,81.2119511 44.1429566,80.1523465 L65.5100479,67.7894695 C69.291075,65.4934979 72.280712,60.4600453 72.280712,56.044776 L72.280712,31.2307732 C72.280712,26.7271669 69.3789485,21.6937142 65.4220864,19.4860797 Z" id="White-Fill" fill="#FFFFFF"></path>
                <path d="M37.3033735,8.77281673 C35.9771988,8.77281673 34.6209036,9.07551957 33.7468373,9.55980783 L9.63484934,23.5742206 C7.8565903,24.6033558 6.07833126,27.6907615 6.07833126,29.749032 L6.07833126,57.7475783 C6.07833126,59.8664074 7.79631018,62.9235338 9.63484934,63.9223896 L33.7468373,77.9065382 C34.5606325,78.4211058 35.9771988,78.6935263 37.3033735,78.6935263 C38.6596687,78.6935263 40.0159638,78.3908416 40.8900301,77.9065382 L65.0020181,63.8921405 C66.7802711,62.8630053 68.5585241,59.7755694 68.5585241,57.7173292 L68.5585241,29.7793114 C68.5585241,27.6604822 66.8405421,24.6033558 65.0020181,23.6045 L40.8900301,9.6203363 C40.0762349,9.10576868 38.7500903,8.77281673 37.3033735,8.77281673 Z" id="Path" fill="#D2E4E7"></path>
                <path d="M68.2670662,18.1612028 C68.1465241,18.3730978 68.0259518,18.5849626 67.8451084,18.7968576 C67.0011928,19.7049057 65.9764337,20.280032 64.9215542,20.9156566 L65.9463132,21.521032 C68.3876385,22.9436477 70.5275783,26.6667082 70.5275783,29.4816904 L70.5275783,57.4499875 C70.5275783,60.2649697 68.3876385,63.9880302 65.9463132,65.4106519 L41.8644458,79.3645211 C40.688994,80.0606984 39.0312831,80.4541969 37.2831807,80.4541969 C35.5350482,80.4541969 33.8773373,80.0909687 32.7018855,79.3645211 L8.62004211,65.4106459 C6.14856018,63.9880302 4.00862343,60.2649697 4.00862343,57.4499875 L4.00862343,29.5119697 C4.00862343,26.6969875 6.14856018,22.973927 8.58990054,21.5513114 L32.671765,7.59742705 C33.8472168,6.90124377 35.5049277,6.50776335 37.2530301,6.50776335 C39.0011626,6.50776335 40.6588434,6.87099466 41.8343253,7.59742705 L47.8924578,11.1085925 C47.8321867,10.2005445 47.8623072,9.26221708 47.8321867,8.32388968 C47.8020361,7.59742705 48.1034217,7.05258007 48.5253795,6.74990747 L43.9441144,4.05598221 C42.1357108,3.02684698 39.7848072,2.45175089 37.3133313,2.45175089 C34.8418253,2.45175089 32.4909217,3.02684698 30.7126687,4.05598221 L6.6006656,18.0098665 C2.8934397,20.1589448 3.88578059e-16,25.2440925 3.88578059e-16,29.5422491 L3.88578059e-16,57.510516 C3.88578059e-16,61.8086726 2.92357825,66.86355 6.60065958,69.0126283 L30.6825181,82.9665035 C32.4607711,83.9956388 34.8418253,84.5707409 37.2831807,84.5707409 C39.7546566,84.5707409 42.1055602,83.9956388 43.8838132,82.9665035 L67.9656807,69.0126283 C71.6729096,66.86355 74.5663434,61.8086726 74.5663434,57.510516 L74.5663434,29.5119697 C74.6266144,25.3349003 71.853753,20.4010889 68.2670662,18.1612028 Z" id="stroke-outline" fill="#375767"></path>
                <path d="M28.7836897,39.0768896 L57.5070964,39.0768896 L57.5070964,31.7215765 L28.8439729,31.7215765 C25.136753,31.7215765 22.0323343,33.0231352 19.6211355,35.5354448 C13.9548162,41.6194484 14.7685964,53.0610231 14.7685964,53.5453114 L15.0398584,56.9354199 L57.2057108,56.9354199 L57.2057108,45.6754608 L49.8515542,45.6754608 L49.8515542,49.6103861 L22.1830331,49.6103861 C22.3337349,47.1888843 22.9365331,42.8907277 25.0463343,40.6508416 C25.9806717,39.5611779 27.1561325,39.0768896 28.7836897,39.0768896 Z" id="Fill-21" fill="#375767"></path>
                <path d="M67.959519,4.9487222 L60.4595539,0.591347154 C59.8087159,0.217851645 58.940953,-7.21644966e-16 58.07319,-7.21644966e-16 C57.2053961,-7.21644966e-16 56.3376331,0.217851645 55.6868262,0.591347154 L48.1558274,4.9487222 C46.8232111,5.75792099 45.7694946,7.53199356 45.7694946,9.08821449 L45.7694946,17.8340684 C45.7694946,19.3902582 46.7922087,21.1954658 48.1558274,21.9735607 L55.6868262,26.3309357 C56.3376331,26.7044001 57.2053961,26.9222829 58.07319,26.9222829 C58.940953,26.9222829 59.8087159,26.7044001 60.4595539,26.3309357 L67.9905217,21.9735607 C69.323169,21.1643308 70.3768855,19.3902582 70.3768855,17.8340684 L70.3768855,9.08821449 C70.3768855,7.50088967 69.3541403,5.7268171 67.959519,4.9487222 Z" id="stroke-F" fill="#375767"></path>
                <path d="M65.8932735,6.72782027 L59.960803,3.28113788 C59.4459906,2.98570304 58.7595903,2.81338245 58.07319,2.81338245 C57.3867653,2.81338245 56.700365,2.98570304 56.1855768,3.28113788 L50.228559,6.72782027 C49.1744599,7.36789628 48.3409705,8.77118718 48.3409705,10.0021574 L48.3409705,16.9201254 C48.3409705,18.1510711 49.149937,19.5789898 50.228559,20.1944626 L56.1855768,23.641145 C56.700365,23.9365553 57.3867653,24.1089004 58.07319,24.1089004 C58.7595903,24.1089004 59.4459906,23.9365553 59.960803,23.641145 L65.9177964,20.1944626 C66.9719202,19.554362 67.8054096,18.1510711 67.8054096,16.9201254 L67.8054096,10.0021574 C67.8054096,8.746584 66.9964187,7.34329311 65.8932735,6.72782027 Z" id="Fill-22" fill="#D2E4E7"></path>
                <path d="M53.6548208,17.0226062 C53.6248382,17.3537023 53.4150205,17.5042252 53.0853322,17.5042252 L51.9164319,17.5042252 C51.586744,17.5042252 51.4668437,17.3537023 51.4968262,17.0226062 L52.3060855,11.8153094 C52.545856,10.3103215 53.3251027,9.3772242 55.0934741,9.3772242 L64.5046693,9.3772242 C64.8343575,9.3772242 64.9542578,9.52771697 64.9242753,9.85881313 L64.7744226,10.7919104 C64.74444,11.1230066 64.5346518,11.2735294 64.2049638,11.2735294 L55.3632271,11.2735294 C54.7937382,11.2735294 54.46405,11.574515 54.3741325,12.1163251 L54.3141973,12.6581051 L62.8262458,12.6581051 C63.155934,12.6581051 63.2758042,12.8086279 63.215869,13.1397241 L63.0660162,14.0728214 C63.0360337,14.4039176 62.8262458,14.5544103 62.4965575,14.5544103 L53.984509,14.5544103 L53.6548208,17.0226062 Z" id="Path" fill="#375767"></path>
            </g>
        </g>
    </g>
</svg>